<svg width="21" height="37" viewBox="0 0 21 37" fill="none" xmlns="http://www.w3.org/2000/svg">
<path d="M10.6504 21.3067C10.83 22.3048 11.0045 23.4665 11.2836 24.4363C11.3624 24.7099 11.5018 25.0968 11.5908 25.3694C11.635 25.5079 11.674 25.6521 11.7008 25.795C11.7365 25.9846 11.7551 26.1794 11.7433 26.3723C11.7294 26.6418 11.6266 26.9359 11.5533 27.1951C11.4976 27.392 11.452 27.5959 11.4328 27.7998C11.3864 28.2681 11.4928 28.7379 11.6068 29.1895C11.6974 29.5281 11.8435 30.0329 11.9065 30.3696C11.9844 30.759 12.0312 31.1864 12.0678 31.5826C12.1195 32.183 12.1797 33.1036 12.2133 33.7031C12.2222 33.8866 12.2259 34.0835 12.2177 34.2667C12.2099 34.4448 12.1906 34.6253 12.1587 34.8006C12.1277 34.9802 12.0721 35.1939 12.0809 35.3768C12.0846 35.4427 12.0965 35.5098 12.1284 35.5683C12.1485 35.6052 12.1777 35.6376 12.2136 35.6599C12.2561 35.6864 12.3053 35.7 12.3541 35.7088C12.4148 35.7199 12.4797 35.7229 12.5414 35.7253C12.5597 35.7291 15.2796 35.7288 15.3428 35.7253C15.3696 35.7234 15.3971 35.7206 15.4224 35.7113C15.4389 35.7054 15.4544 35.6961 15.4669 35.6836C15.481 35.6697 15.4915 35.6525 15.5001 35.6348C15.5263 35.5789 15.5381 35.517 15.5426 35.4558C15.5463 35.3949 15.5425 35.3314 15.5178 35.2748C15.4894 35.2087 15.4315 35.1615 15.3708 35.1258C15.327 35.1 15.2781 35.0775 15.2314 35.0573C15.0707 34.9898 14.8571 34.9023 14.7061 34.8203C14.4696 34.6931 14.2404 34.5437 14.0284 34.3789C13.9146 34.2884 13.801 34.1911 13.72 34.069C13.6664 33.9886 13.6318 33.8966 13.6084 33.8032C13.5755 33.6722 13.5617 33.5352 13.5553 33.4005C13.5447 33.1872 13.5592 32.9704 13.589 32.7591C13.7825 31.533 14.2116 29.9702 14.3247 28.7371C14.3519 28.422 14.3489 28.1004 14.2875 27.7893C14.1987 27.339 14.0156 26.8914 13.9374 26.4388C13.8817 26.1277 13.8649 25.8085 13.8818 25.4929C13.9102 24.964 14.0285 24.4393 14.1753 23.9317L14.5535 22.7039C14.6452 22.3826 14.7259 22.0474 14.7752 21.717C14.8751 21.0526 14.8827 20.3682 14.7996 19.7014C14.7062 18.9298 14.456 18.0879 14.2481 17.3369C14.1939 17.1442 13.8433 15.9717 13.8058 15.796C13.7511 15.5615 13.7108 15.2536 13.6753 15.0148" stroke="black" stroke-width="0.7" stroke-miterlimit="10" stroke-linecap="round" stroke-linejoin="round"/>
<path d="M10.6025 18.705C10.6086 19.6019 10.6864 22.3627 10.6557 23.2121C10.6353 23.6676 10.579 24.1713 10.5245 24.6254C10.4953 24.8679 10.3751 25.6493 10.3684 25.8722C10.3646 25.9635 10.3683 26.0566 10.3838 26.1468C10.4182 26.3699 10.5538 26.6267 10.6396 26.8354C10.6934 26.9659 10.741 27.1012 10.7755 27.238C10.8403 27.4947 10.8659 27.7616 10.8665 28.026C10.8677 28.3104 10.8286 28.5958 10.7485 28.8688C10.688 29.0857 10.5799 29.3531 10.5142 29.5693C10.4848 29.6679 10.4608 29.7705 10.4417 29.8716C10.3892 30.1523 10.3631 30.4599 10.3398 30.7451C10.3012 31.2558 10.2735 31.8624 10.2618 32.3744C10.2527 32.8355 10.2519 33.3329 10.277 33.793C10.2914 34.0338 10.3114 34.2821 10.3632 34.518C10.3856 34.6194 10.4155 34.7209 10.4549 34.8172C10.4949 34.9177 10.5652 35.0497 10.601 35.1518C10.629 35.2303 10.6414 35.3146 10.6339 35.3977C10.6254 35.4909 10.5962 35.5906 10.5228 35.6529C10.4878 35.6822 10.4439 35.6988 10.3997 35.7083C10.3251 35.7246 10.2461 35.7251 10.1701 35.7268L7.2842 35.7274L7.23725 35.7272C7.20252 35.7267 7.16608 35.7261 7.13171 35.7209C7.11039 35.7176 7.08898 35.7126 7.06936 35.7034C7.05114 35.6948 7.0347 35.6823 7.02248 35.6662C7.00855 35.648 6.99981 35.6263 6.99389 35.6043C6.97789 35.5418 6.98041 35.4758 6.9893 35.4124C7.00381 35.3151 7.03744 35.2186 7.09898 35.1409C7.15416 35.0699 7.23147 35.0196 7.31383 34.9853C7.48713 34.9125 7.71153 34.8801 7.89601 34.8418C8.10856 34.7995 8.32089 34.7385 8.50945 34.6293C8.71785 34.51 8.91878 34.3461 9.00639 34.1158C9.0663 33.9615 9.07771 33.793 9.07541 33.6289C9.072 33.3911 9.05334 33.1488 9.00491 32.9158C8.97817 32.7832 8.9407 32.6416 8.90159 32.5121C8.78525 32.1373 8.57729 31.5169 8.47531 31.1416C8.31134 30.5443 8.16685 29.9036 8.05191 29.295C7.97318 28.8638 7.89927 28.4132 7.89068 27.9746C7.88483 27.6892 7.91068 27.4004 7.96629 27.1205C8.02554 26.8125 8.12693 26.4649 8.15078 26.1514C8.15892 26.0435 8.15611 25.9326 8.14174 25.8252C8.12471 25.6954 8.09101 25.5665 8.05191 25.4418C7.97822 25.2094 7.8815 24.9648 7.79003 24.7387C7.52253 24.0732 7.0972 23.2324 6.84651 22.5605C6.76031 22.3253 6.69002 22.0788 6.64322 21.8326C6.50095 21.0718 6.53294 20.2845 6.59937 19.517C6.72231 18.2059 6.97545 16.8915 7.41018 15.6467" stroke="black" stroke-width="0.7" stroke-miterlimit="10" stroke-linecap="round" stroke-linejoin="round"/>
<path d="M7.82373 15.0789C8.04991 15.2528 8.27512 15.4395 8.46857 15.6495C8.88249 16.1028 9.22183 16.6327 9.52355 17.1656C9.67633 17.4375 9.85408 17.8068 9.99923 18.0847C10.0463 18.1728 10.0984 18.2658 10.1524 18.3498C10.1985 18.421 10.2487 18.4914 10.3069 18.5532C10.347 18.5955 10.3918 18.6346 10.4433 18.6625C10.6027 18.7492 10.7742 18.6954 10.8974 18.5732C10.9874 18.4842 11.0512 18.3719 11.1075 18.2595C11.1568 18.1614 11.2076 18.037 11.25 17.9348C11.4709 17.4006 11.7638 16.654 12.0251 16.145C12.171 15.8608 12.3699 15.6054 12.5915 15.3763C12.8002 15.1606 13.0295 14.9595 13.2802 14.7938" stroke="black" stroke-width="0.7" stroke-miterlimit="10" stroke-linecap="round" stroke-linejoin="round"/>
<path d="M7.98047 14.7059C8.32796 15.068 8.73499 15.3743 9.18364 15.6C9.51721 15.7689 9.87114 15.9058 10.2371 15.9848C10.6131 16.0643 11.0188 16.0767 11.3814 15.9339C11.4821 15.8938 11.577 15.8384 11.6643 15.7743C11.7266 15.729 11.7891 15.6761 11.8472 15.6253C12.199 15.3087 12.8043 14.7928 13.1271 14.4559" stroke="black" stroke-width="0.7" stroke-miterlimit="10" stroke-linecap="round" stroke-linejoin="round"/>
<path d="M13.5122 13.1142L13.5448 12.8998C13.5571 12.8139 13.5663 12.7236 13.5697 12.6371C13.5752 12.5135 13.5728 12.3677 13.5881 12.2455C13.5948 12.1947 13.6042 12.143 13.6254 12.0961C13.6557 12.0269 13.7151 11.9802 13.7781 11.942C13.918 11.8592 14.1016 11.7708 14.2407 11.6868C14.3921 11.5972 14.5393 11.4951 14.6708 11.3779C14.8687 11.2013 15.0381 10.9916 15.1831 10.77C15.359 10.4992 15.5028 10.2033 15.6023 9.896" stroke="black" stroke-width="0.7" stroke-miterlimit="10" stroke-linecap="round" stroke-linejoin="round"/>
<path d="M14.597 8.32385C14.6997 8.56344 14.8273 8.80161 14.9588 9.02675C15.0648 9.20827 15.1801 9.39409 15.3071 9.56139C15.4067 9.69292 15.5175 9.81934 15.6394 9.93065C15.8288 10.1026 16.0457 10.2472 16.2789 10.3526C16.358 10.3879 16.4415 10.4194 16.5251 10.442C16.5943 10.4617 16.6889 10.4785 16.7569 10.5014C16.7806 10.5101 16.8055 10.5202 16.8222 10.5398C16.8456 10.5684 16.8334 10.6084 16.8227 10.6398C16.7978 10.7052 16.7614 10.7774 16.7394 10.8438C16.6781 11.0253 16.6249 11.2197 16.5273 11.3858C16.4605 11.5034 16.3721 11.6081 16.2771 11.7038C16.0902 11.8969 15.7686 12.1357 15.5579 12.3066C15.483 12.3665 15.3932 12.4416 15.3222 12.5059C15.2613 12.5607 15.0926 12.726 15.0334 12.7832C14.9476 12.8643 14.857 12.9443 14.7536 13.002C14.6835 13.0417 14.6063 13.0689 14.5274 13.0849C14.3911 13.1129 14.2481 13.1141 14.1093 13.112C13.8707 13.1072 13.5881 13.0904 13.3538 13.1349C13.2496 13.1545 13.1433 13.1832 13.0553 13.2444C13.002 13.2813 12.96 13.3342 12.938 13.3953C12.9165 13.4535 12.9103 13.5163 12.9108 13.5779C12.9117 13.6622 12.9243 13.7471 12.94 13.8297C12.9839 14.0506 13.0538 14.2684 13.1357 14.478C13.1924 14.6174 13.2522 14.7599 13.336 14.8856C13.3603 14.9206 13.3885 14.954 13.4238 14.9784C13.4503 14.9969 13.4808 15.0093 13.5125 15.0155C13.5929 15.0305 13.676 15.0166 13.7552 15.0006C13.9298 14.962 14.0994 14.8965 14.2619 14.8229C14.398 14.7602 14.5331 14.6883 14.6582 14.6057C14.782 14.5248 14.9019 14.4262 15.0134 14.329C15.1801 14.1799 15.3645 14.024 15.5523 13.9034C15.8191 13.7284 16.1155 13.5879 16.4092 13.4642C17.0144 13.2069 17.7903 12.9353 18.329 12.5576C18.5933 12.3724 18.8205 12.136 19.0229 11.8858C19.1664 11.7034 19.5651 11.21 19.6959 11.0321C19.7515 10.9563 19.8072 10.8755 19.8551 10.7947C19.9028 10.7137 19.9463 10.6283 19.9726 10.5377C19.993 10.4674 20.002 10.3936 19.9995 10.3205C19.9962 10.2154 19.9707 10.111 19.9432 10.0099C19.8567 9.69536 19.7342 9.3875 19.5735 9.10341C19.4205 8.83309 19.2268 8.5778 19.0324 8.33585C18.937 8.22187 18.6994 7.93074 18.6044 7.82432C18.5699 7.78596 18.5322 7.747 18.4939 7.71242C18.4095 7.63547 18.3111 7.574 18.206 7.52949C18.0112 7.44721 17.7324 7.38389 17.5274 7.32582C17.4165 7.29405 17.3004 7.2588 17.1946 7.21318C17.1298 7.18511 17.0658 7.1523 17.0095 7.1095C16.9267 7.04773 16.8634 6.96382 16.8095 6.87658C16.7461 6.772 16.6765 6.65099 16.5981 6.55827C16.509 6.45096 16.4051 6.35527 16.2941 6.27092C16.0198 6.0637 15.6898 5.91662 15.3431 5.9024C15.0761 5.88699 14.7712 5.9412 14.5063 5.97971C14.3675 5.99949 14.2237 6.01445 14.0836 6.00193C13.9322 5.98993 13.7845 5.94579 13.6435 5.89069C13.3177 5.76346 12.9209 5.55172 12.5863 5.44989C12.3852 5.38627 12.1397 5.33147 11.9402 5.2637C11.7486 5.19972 11.5608 5.11359 11.3833 5.01746" stroke="black" stroke-width="0.7" stroke-miterlimit="10" stroke-linecap="round" stroke-linejoin="round"/>
<path d="M6.27267 8.40431C6.23165 8.57006 6.18136 8.73802 6.11626 8.89584C6.0325 9.10047 5.92452 9.30006 5.80595 9.48669C5.58577 9.83181 5.31412 10.148 4.98974 10.399C4.83918 10.515 4.67624 10.6197 4.50065 10.6936C4.4434 10.7178 4.38141 10.7382 4.32187 10.756C4.26529 10.7728 4.1856 10.7938 4.13154 10.8163C4.10502 10.8281 4.07518 10.8423 4.06103 10.869C4.05429 10.8822 4.05325 10.8977 4.0554 10.9121C4.06044 10.9446 4.07606 10.9744 4.09095 11.0033L4.15353 11.1175C4.2524 11.3059 4.33439 11.5059 4.40289 11.7073C4.45518 11.8607 4.5125 12.0769 4.58804 12.2185C4.61455 12.2682 4.64781 12.3153 4.69113 12.3518C4.77149 12.4192 4.88724 12.4685 4.97626 12.528C5.15141 12.6416 5.30916 12.7891 5.46202 12.9307L6.08797 13.5489C6.1136 13.5731 6.13944 13.5982 6.17084 13.6146C6.19847 13.6291 6.22972 13.6352 6.26038 13.6399C6.36495 13.6563 6.67015 13.6688 6.7808 13.6765C7.02046 13.6925 7.26789 13.7127 7.50081 13.773C7.59657 13.7982 7.69211 13.8303 7.77964 13.8769C7.83882 13.9086 7.89518 13.9475 7.94094 13.9969C7.98597 14.0454 8.01982 14.1042 8.03959 14.1672C8.05996 14.2315 8.06648 14.2998 8.06292 14.3669C8.05737 14.4697 8.02885 14.5705 7.99479 14.6672C7.94583 14.8072 7.81719 15.0906 7.75809 15.23C7.71247 15.3305 7.66456 15.4332 7.59709 15.5211C7.55991 15.5686 7.51466 15.6133 7.45711 15.6348C7.40075 15.656 7.33847 15.653 7.28048 15.6405C7.16509 15.6149 7.05245 15.5584 6.94477 15.5106C6.65727 15.3785 6.37458 15.2241 6.12263 15.0318C5.97103 14.9174 5.77314 14.7571 5.61177 14.6634C5.20296 14.4294 4.72224 14.2236 4.29099 14.0303C3.85463 13.8333 3.27511 13.6421 2.87067 13.3863C2.61472 13.2261 2.39106 13.0165 2.18695 12.7955C1.85353 12.4366 1.55374 12.0106 1.2795 11.6041L1.14878 11.4205C1.09242 11.3388 1.03865 11.2516 1.01458 11.1543C0.985626 11.0355 1.00496 10.9113 1.02791 10.7931C1.07605 10.5724 1.13508 10.2628 1.20047 10.051C1.24802 9.89358 1.31016 9.7379 1.38384 9.59075C1.56529 9.22993 1.80065 8.88896 2.03972 8.56391C2.17451 8.38617 2.31315 8.19161 2.4763 8.0392C2.59731 7.92507 2.73907 7.83346 2.88822 7.76058C3.15358 7.62905 3.47507 7.5233 3.74531 7.40221C3.80204 7.37599 3.86018 7.34733 3.91143 7.31141C3.95024 7.28445 3.98534 7.25179 4.01459 7.21469C4.07066 7.14529 4.16908 6.96503 4.21693 6.88875C4.32661 6.70953 4.45236 6.53652 4.6047 6.39107C4.84132 6.166 5.13149 5.99152 5.44832 5.90798C5.55304 5.88087 5.66198 5.86443 5.77018 5.86243C5.89912 5.85977 6.03065 5.87636 6.15781 5.89709C6.30593 5.92072 6.48471 5.96219 6.63387 5.96226C6.67971 5.96189 6.72622 5.95693 6.76991 5.94264C6.87737 5.90887 6.96269 5.82029 7.04534 5.74764C7.10444 5.69498 7.17161 5.65129 7.24286 5.61692C7.29714 5.59034 7.35617 5.56708 7.41312 5.54649C7.8089 5.41585 8.53779 5.18464 8.93112 5.05029" stroke="black" stroke-width="0.7" stroke-miterlimit="10" stroke-linecap="round" stroke-linejoin="round"/>
<path d="M8.95761 5.12051C9.13987 5.5522 9.64141 5.80364 10.0875 5.85807C10.3505 5.8888 10.6296 5.85807 10.8627 5.72617C10.9733 5.66344 11.0685 5.57531 11.1466 5.47548C11.2748 5.31092 11.3635 5.11614 11.412 4.91359C11.4378 4.80553 11.4519 4.69244 11.4614 4.5818C11.4749 4.41272 11.484 4.23298 11.4855 4.06331C11.4859 4.0168 11.4846 3.96555 11.4825 3.91911C11.4822 3.91163 11.4825 3.90356 11.4836 3.89615C11.4846 3.88875 11.4868 3.88134 11.491 3.87512C11.4956 3.86831 11.5029 3.86349 11.5105 3.86053C11.528 3.85379 11.5472 3.85224 11.5657 3.85039C11.6135 3.84594 11.6727 3.84639 11.7172 3.8278C11.7317 3.82172 11.7449 3.81224 11.7546 3.7998C11.7825 3.76307 11.7848 3.71137 11.7878 3.66694C11.7892 3.56977 11.8034 3.42343 11.8134 3.32552C11.8188 3.26272 11.8235 3.19733 11.8193 3.13438C11.8158 3.08676 11.8074 3.03736 11.7807 2.99677C11.7693 2.97967 11.7543 2.96448 11.7356 2.95545C11.7226 2.94908 11.708 2.94604 11.6936 2.94649C11.6758 2.94708 11.6584 2.95271 11.6419 2.95915C11.6147 2.96944 11.5851 2.98737 11.5567 2.9944C11.5514 2.99551 11.5458 2.99611 11.5404 2.9947L11.5401 2.99463L11.5397 2.99455L11.5393 2.99448L11.539 2.99433L11.5387 2.99418L11.5384 2.99403L11.5379 2.99396L11.5375 2.99381L11.537 2.99359L11.5367 2.99337L11.5363 2.99314L11.5359 2.99292L11.5356 2.9927L11.5352 2.99248L11.5348 2.99226L11.5344 2.99196L11.5341 2.99166L11.5337 2.99137L11.5333 2.99107L11.533 2.99077L11.5326 2.99048L11.5323 2.99018L11.532 2.98989L11.5317 2.98951L11.5314 2.98914L11.5311 2.98877L11.5308 2.9884L11.5305 2.98803L11.5302 2.98766L11.5299 2.98729L11.5296 2.98692L11.5293 2.98648L11.529 2.98603L11.5287 2.98559L11.5284 2.98515C11.525 2.97922 11.5236 2.97241 11.5227 2.96567C11.5191 2.9316 11.5255 2.89635 11.5301 2.86265C11.5514 2.73527 11.5729 2.60152 11.5735 2.47228C11.5773 2.27365 11.5475 2.07214 11.4709 1.88802C11.4063 1.73072 11.31 1.58668 11.1962 1.46077C11.0695 1.32036 10.9172 1.20105 10.7454 1.12084C10.6417 1.07226 10.5306 1.03782 10.4177 1.01901C10.2821 0.99642 10.1423 0.995605 10.0056 1.00797C9.79686 1.0276 9.59001 1.07774 9.3956 1.15617C9.21038 1.2326 9.02849 1.33465 8.89563 1.48744C8.8132 1.58268 8.75565 1.69799 8.72196 1.819C8.68219 1.96008 8.6713 2.10924 8.66708 2.25529C8.66189 2.50553 8.66708 2.766 8.68559 3.01551C8.68596 3.02492 8.68663 3.03521 8.68182 3.04373C8.67878 3.04913 8.6733 3.05261 8.66767 3.05484C8.65945 3.05817 8.65064 3.05987 8.6419 3.06158C8.60316 3.06913 8.55673 3.07076 8.52822 3.10172C8.51518 3.11586 8.5074 3.13393 8.50222 3.15222C8.48593 3.21592 8.48837 3.28509 8.48682 3.35041C8.488 3.51438 8.49444 3.6822 8.52829 3.84305C8.53725 3.88068 8.54754 3.91926 8.56865 3.95207C8.58035 3.97014 8.59665 3.98547 8.61627 3.99458C8.65493 4.01272 8.70048 4.01013 8.74143 4.01909C8.75565 4.02243 8.77076 4.0268 8.78106 4.03776C8.79653 4.05501 8.79653 4.08034 8.79727 4.10226C8.79572 4.28186 8.83327 4.50033 8.85223 4.67926C8.87222 4.82879 8.89851 4.98083 8.95761 5.12051Z" stroke="black" stroke-width="0.7" stroke-miterlimit="10" stroke-linecap="round" stroke-linejoin="round"/>
<path d="M10.4985 9.10216C10.5359 9.14444 10.5709 9.19629 10.6104 9.23643C10.6352 9.2619 10.6629 9.28471 10.6925 9.30427C10.7555 9.34574 10.8268 9.37492 10.8975 9.40099C11.054 9.4572 11.2205 9.49771 11.383 9.53237C11.7658 9.61132 12.1651 9.66338 12.5552 9.68523C12.8383 9.69871 13.1284 9.69737 13.4046 9.62665C13.5321 9.59347 13.6567 9.54289 13.7658 9.46838C13.9911 9.31508 14.1429 9.07809 14.2588 8.83606" stroke="black" stroke-width="0.7" stroke-miterlimit="10" stroke-linecap="round" stroke-linejoin="round"/>
<path d="M6.58105 8.91797L6.66867 9.10719C6.72303 9.22006 6.78916 9.33085 6.88366 9.41476C6.96224 9.48593 7.05881 9.53459 7.15924 9.56703C7.32647 9.62094 7.50369 9.64168 7.67855 9.65197C7.985 9.66782 8.2962 9.64827 8.60059 9.61154C8.78841 9.58828 8.98252 9.5571 9.16693 9.51408C9.29579 9.48341 9.42547 9.44624 9.54693 9.39291C9.61188 9.36418 9.67549 9.32981 9.73185 9.28634C9.79354 9.23968 9.84665 9.18044 9.89775 9.12267" stroke="black" stroke-width="0.7" stroke-miterlimit="10" stroke-linecap="round" stroke-linejoin="round"/>
<path d="M7.41728 13.753C7.37396 13.6241 7.32412 13.474 7.29286 13.3426C7.26035 13.2117 7.2385 13.0692 7.22228 12.9352C7.20555 12.8084 7.18503 12.57 7.164 12.4475C7.15844 12.4154 7.15252 12.3819 7.14311 12.3507C7.13511 12.3238 7.12356 12.2975 7.10631 12.2752C7.08979 12.2536 7.06883 12.2357 7.04706 12.2196C6.92849 12.1361 6.73527 12.044 6.61107 11.9685C6.39667 11.8428 6.18752 11.6928 5.99289 11.5383C5.8136 11.3942 5.63585 11.2384 5.48003 11.0692C5.39286 10.9743 5.31177 10.8709 5.24585 10.76C5.16846 10.632 5.10973 10.4871 5.05322 10.3489" stroke="black" stroke-width="0.7" stroke-miterlimit="10" stroke-linecap="round" stroke-linejoin="round"/>
</svg>
